<svg width="16" height="14" viewBox="0 0 16 14" fill="none" xmlns="http://www.w3.org/2000/svg">
<path fill-rule="evenodd" clip-rule="evenodd" d="M15.5528 4.18065H12.2592C10.7264 4.18335 9.48474 5.394 9.48198 6.88844C9.4799 8.38625 10.723 9.60229 12.2592 9.60431H15.5556V9.84227C15.5556 12.455 13.9717 14 11.2913 14H4.26499C1.5839 14 0 12.455 0 9.84227V4.15167C0 1.53893 1.5839 0 4.26499 0H11.2885C13.9689 0 15.5528 1.53893 15.5528 4.15167V4.18065ZM3.68508 4.17451H8.07174H8.07451H8.08004C8.40844 4.17316 8.67392 3.91229 8.67253 3.59143C8.67115 3.27124 8.4029 3.01239 8.07451 3.01374H3.68508C3.35876 3.01509 3.09397 3.27326 3.09258 3.5921C3.0912 3.91229 3.35668 4.17316 3.68508 4.17451Z" fill="white"/>
<path opacity="0.4" d="M10.9178 7.23077C11.0804 7.97058 11.729 8.49109 12.4696 8.47755H14.9973C15.3054 8.47755 15.5553 8.22238 15.5553 7.90696V5.93797C15.5547 5.62323 15.3054 5.36738 14.9973 5.3667H12.4101C11.5677 5.36941 10.8874 6.0686 10.8887 6.93025C10.8887 7.0311 10.8986 7.13195 10.9178 7.23077Z" fill="white"/>
<circle cx="12.4426" cy="6.92182" r="0.777778" fill="white"/>
</svg>
